<svg xmlns="http://www.w3.org/2000/svg" width="9" height="9" viewBox="0 0 9 9"><path d="M4.34,5.47h0a1.06,1.06,0,0,0-.7.27A3.87,3.87,0,0,0,2.44,7.19c-.31.72.32,1.64.88,1.55a8.24,8.24,0,0,1,1.09-.1H4.35Z"/><path d="M6.36,7.18A3.87,3.87,0,0,0,5.12,5.74a1.06,1.06,0,0,0-.71-.26H4.34V8.64h.05a8.24,8.24,0,0,1,1.09.09C6.06,8.82,6.67,7.9,6.36,7.18Z"/><path d="M7.17,6l.09,0c.36-.32.42-.36.53-1S8,3.86,7.55,3.71s-.71,0-1,.46-.43.43-.45.77a1.17,1.17,0,0,0,.4,1A1,1,0,0,0,7.17,6Z"/><path d="M7.45,2.07c.42.45.52.82.45,1s-.36.38-.5.28-.16-.26,0-.45S7.45,2.07,7.45,2.07Z"/><path d="M1.62,6.2l-.08-.05c-.33-.35-.39-.4-.43-1.08S1,4,1.44,3.87s.71.08.94.55.39.47.38.81a1.17,1.17,0,0,1-.49,1A1,1,0,0,1,1.62,6.2Z"/><path d="M1.69,2.25c-.46.41-.59.77-.54,1s.33.41.47.33.18-.25.06-.44S1.69,2.25,1.69,2.25Z"/><path d="M5.83,3.79a.2.2,0,0,0,.06-.08,1.21,1.21,0,0,0,0-1.17c-.24-.67-.55-1.27-.91-1s-.53.38-.52.92-.12.7,0,1A1,1,0,0,0,5.22,4,1,1,0,0,0,5.83,3.79Z"/><path d="M4.88.25c.35.4.44.73.38.93s-.29.34-.4.25a.27.27,0,0,1,0-.4A2,2,0,0,0,4.88.25Z"/><path d="M2.69,3.85a.2.2,0,0,1-.06-.08,1.21,1.21,0,0,1,0-1.17c.23-.67.53-1.28.89-1s.54.37.54.91.13.7,0,1a1,1,0,0,1-.77.6A1,1,0,0,1,2.69,3.85Z"/><path d="M3.59.3c-.35.41-.43.74-.37.93s.3.33.41.24a.27.27,0,0,0,0-.4A2,2,0,0,1,3.59.3Z"/></svg>
